<svg 
    xmlns="http://www.w3.org/2000/svg" 
    xml:space="preserve" 
    width="100%" 
    height="100%" 
    style="shape-rendering:geometricPrecision; text-rendering:geometricPrecision; image-rendering:optimizeQuality; fill-rule:evenodd; clip-rule:evenodd"
    viewBox="0 0 1.11041 0.52747">
  <path fill="purple" d="M0.24596 0.07239c0.03288,0.0055 0.0611,0.02032 0.08481,0.04445 0.0237,0.02399 0.04106,0.05277 0.05221,0.08608 0.01114,0.03344 0.01679,0.06914 0.01679,0.1071 0,0.02455 -0.00296,0.05066 -0.00889,0.07832 -0.00593,0.0278 -0.01157,0.0491 -0.01679,0.06434l-0.02427 0.0707 -0.20631 0 0.03006 -0.08438 0.17498 0c0.01481,-0.0446 0.02229,-0.08467 0.02229,-0.11995 0,-0.03937 -0.01129,-0.07253 -0.03387,-0.09962 -0.02257,-0.02696 -0.05136,-0.0405 -0.08607,-0.0405 -0.02202,0 -0.04516,0.00804 -0.06957,0.02399 -0.02441,0.01594 -0.04572,0.03767 -0.06393,0.06491 -0.03767,0.0563 -0.05658,0.13899 -0.05658,0.24807 0,0.00226 -0.00155,0.00466 -0.0048,0.00748 -0.0031,0.00268 -0.00649,0.00409 -0.01002,0.00409 -0.00578,0 -0.00973,-0.00324 -0.01157,-0.00973 -0.00197,-0.0065 -0.00296,-0.01651 -0.00296,-0.03034 0,-0.05729 0.00861,-0.11064 0.02582,-0.15974 0.01722,-0.04925 0.04177,-0.09144 0.0738,-0.12672 0,-0.01072 -0.0031,-0.01849 -0.00917,-0.023 -0.00607,-0.00452 -0.01849,-0.00889 -0.03754,-0.01298 -0.01679,-0.00395 -0.02977,-0.01143 -0.0388,-0.02258 -0.00917,-0.01115 -0.01369,-0.02427 -0.01369,-0.03951 0,-0.01242 0.00155,-0.02286 0.00452,-0.03133 0.0031,-0.00861 0.00635,-0.01453 0.00987,-0.01778 0.00367,-0.00339 0.00692,-0.0055 0.01002,-0.00663l0.00452 -0.00212c0.00169,0.00635 0.00409,0.01157 0.00748,0.01581 0.00324,0.00409 0.00734,0.00719 0.01213,0.00917 0.0048,0.00211 0.00903,0.00353 0.01256,0.00423 0.00367,0.00071 0.00819,0.00127 0.01369,0.00184 0.00691,0.00084 0.01242,0.00169 0.01651,0.00254 0.00409,0.0007 0.00889,0.00239 0.01411,0.00465 0.00522,0.0024 0.00917,0.00607 0.01171,0.01101 0.00269,0.00494 0.00396,0.01115 0.00396,0.01863 0,0.00494 -0.00043,0.00973 -0.00127,0.01467 -0.00085,0.0048 -0.00127,0.00889 -0.00127,0.01214 0,0.00578 0.00141,0.01157 0.00395,0.01735 0.00268,0.00579 0.00606,0.00988 0.01016,0.01242 0.02455,-0.01383 0.04374,-0.0285 0.05771,-0.04402 0.01383,-0.01553 0.02173,-0.03331 0.02371,-0.05306z"/>
</svg>